<!DOCTYPE svg PUBLIC "-//W3C//DTD SVG 20010904//EN" "http://www.w3.org/TR/2001/REC-SVG-20010904/DTD/svg10.dtd">
<svg version="1.0" xmlns="http://www.w3.org/2000/svg" width="825px" height="751px" viewBox="0 0 8250 7510" preserveAspectRatio="xMidYMid meet">
<g id="layer1" fill="#000000" stroke="none">
 <path d="M3951 7176 c-74 -46 -137 -90 -141 -97 -4 -8 -26 -88 -50 -179 l-42 -166 30 -189 c31 -188 31 -191 16 -295 -14 -98 -19 -112 -82 -227 l-67 -122 -130 -46 c-71 -25 -136 -45 -142 -45 -7 0 -73 30 -146 66 l-133 66 -83 119 c-91 129 -82 124 -222 144 l-46 7 -48 -65 -47 -65 -107 -6 c-58 -4 -160 -2 -226 3 -186 16 -163 25 -235 -90 -34 -55 -64 -108 -67 -117 -5 -21 35 -274 45 -283 4 -4 68 -51 142 -104 74 -54 137 -101 140 -106 3 -4 17 -51 30 -104 l24 -95 -37 -76 -38 -76 -147 7 c-94 4 -181 14 -240 28 l-93 21 -24 -29 c-13 -17 -32 -44 -41 -61 -17 -31 -17 -34 15 -120 31 -85 37 -95 161 -229 l129 -140 20 -84 19 -85 -31 -65 -32 -65 -83 -28 c-78 -25 -88 -26 -170 -17 -48 5 -172 32 -277 59 l-190 49 -260 11 -260 11 -200 -41 c-109 -22 -202 -43 -206 -48 -31 -34 -149 -210 -149 -222 0 -8 5 -64 10 -125 l11 -110 79 -140 c78 -137 84 -144 252 -312 l173 -173 188 -56 189 -56 201 31 c168 26 231 31 372 31 l170 0 70 -61 c63 -54 70 -64 67 -92 -5 -44 -82 -155 -176 -255 l-80 -83 28 -55 27 -56 72 9 c40 4 107 7 150 7 85 -2 96 -7 141 -72 24 -36 25 -40 15 -116 -8 -64 -19 -96 -54 -160 -39 -71 -52 -86 -107 -120 l-63 -39 -66 23 c-56 19 -77 21 -142 15 l-77 -7 -36 -60 c-35 -57 -36 -61 -29 -128 l7 -69 68 -56 c64 -52 71 -56 148 -66 79 -11 83 -10 229 30 82 23 207 64 278 91 114 44 138 50 204 50 105 0 218 -36 299 -95 l62 -45 -19 -38 c-26 -51 -71 -163 -71 -177 0 -6 29 -35 65 -64 l65 -53 118 11 c64 6 150 12 191 14 l75 2 16 -65 17 -65 -102 -110 c-57 -62 -128 -151 -160 -203 l-58 -93 28 -97 c16 -53 34 -104 42 -113 7 -9 55 -28 107 -43 91 -27 97 -28 197 -17 57 6 107 15 110 19 4 4 44 54 89 112 61 78 104 148 165 271 62 123 241 422 280 467 1 2 31 11 66 21 l64 18 48 -24 c45 -23 52 -31 92 -118 l44 -95 -20 -172 c-20 -164 -20 -177 -5 -282 17 -115 71 -331 89 -354 6 -8 56 -37 111 -64 l101 -51 152 38 153 37 55 103 c52 97 56 110 66 207 l11 103 -61 127 c-59 127 -60 129 -70 255 l-10 128 42 43 43 43 85 -65 c71 -55 95 -68 157 -83 l72 -17 61 29 c33 16 65 35 71 42 6 8 8 36 3 77 l-6 64 -79 63 c-76 62 -80 67 -111 149 -18 47 -32 92 -32 101 1 9 11 48 23 86 19 65 26 75 83 121 61 48 64 50 147 57 66 5 96 13 135 35 l50 29 155 -19 c85 -10 251 -24 368 -30 l214 -12 128 52 128 51 93 131 c52 72 97 136 101 143 4 6 12 78 18 159 l12 149 -59 59 c-44 45 -84 73 -164 113 l-106 54 -229 11 -228 11 -58 43 -57 43 47 51 c26 28 128 119 227 203 170 142 189 156 345 234 160 81 166 86 210 146 61 84 62 87 105 228 l37 124 -17 111 c-10 61 -22 119 -27 129 -9 18 -146 87 -172 87 -7 0 -113 -41 -236 -91 l-224 -91 -23 28 c-13 16 -43 58 -67 94 l-44 65 19 143 c12 96 31 183 58 270 31 100 41 149 46 232 5 101 5 107 -22 160 l-28 55 -65 -3 -65 -2 -66 -66 -66 -65 -134 -34 c-74 -19 -141 -35 -149 -35 -8 0 -38 19 -66 42 l-51 41 -7 121 -7 121 56 124 c50 114 55 131 55 197 0 45 -5 75 -12 82 -27 22 -99 35 -253 46 l-160 11 -2 35 c-7 91 -15 139 -27 155 -12 17 -16 16 -59 -9 -30 -18 -58 -47 -84 -86 l-38 -59 -85 -20 -85 -19 -80 41 -79 42 -47 158 -47 158 35 227 35 227 -16 123 c-24 177 -61 250 -204 395 l-107 107 -140 0 -140 0 -134 -84z"/>
 <path d="M7825 3645 c-53 -16 -128 -54 -243 -123 -72 -43 -101 -67 -135 -112 -31 -43 -51 -60 -77 -66 -56 -14 -41 -29 33 -32 54 -2 97 5 200 33 162 44 160 43 240 100 44 32 71 60 83 87 17 38 17 40 -4 84 -24 48 -31 50 -97 29z"/>
 <path d="M885 1401 c-24 -5 -35 -17 -53 -55 -26 -54 -24 -102 6 -128 28 -25 150 -56 288 -74 l130 -16 135 42 c73 23 140 47 146 52 24 19 2 28 -70 28 -98 0 -206 30 -270 74 -55 38 -200 87 -251 85 -17 -1 -44 -4 -61 -8z"/>
 </g>

</svg>